<svg width="90" height="90" viewBox="0 0 90 90" fill="none" xmlns="http://www.w3.org/2000/svg">
<path d="M68.25 12H21.75C17.4681 12 14 15.222 14 19.2V76.8C14 80.778 17.4681 84 21.75 84H68.25C72.5319 84 76 80.778 76 76.8V19.2C76 15.222 72.5319 12 68.25 12ZM45 26.4C51.5875 26.4 56.625 31.08 56.625 37.2C56.625 43.32 51.5875 48 45 48C38.4125 48 33.375 43.32 33.375 37.2C33.375 31.08 38.4125 26.4 45 26.4ZM64.375 69.6H25.625C25.625 69.6 25.625 67.494 25.625 66C25.625 60.3444 35.359 55.2 45 55.2C54.641 55.2 64.375 60.3444 64.375 66C64.375 67.494 64.375 69.6 64.375 69.6Z" fill="white"/>
</svg>
