<svg width="74" height="74" viewBox="0 0 74 74" fill="none" xmlns="http://www.w3.org/2000/svg">
<g clip-path="url(#clip0)">
<path d="M72.7572 33.0809L39.5558 2.82794C38.0985 1.49985 35.9009 1.49999 34.4442 2.8278L1.24268 33.081C0.075307 34.1448 -0.310302 35.7837 0.260018 37.2564C0.830481 38.729 2.21942 39.6804 3.79871 39.6804H9.10155V69.9916C9.10155 71.1934 10.076 72.1678 11.2778 72.1678H29.4762C30.678 72.1678 31.6524 71.1935 31.6524 69.9916V51.5876H42.348V69.9918C42.348 71.1935 43.3224 72.168 44.5242 72.168H62.7218C63.9236 72.168 64.898 71.1937 64.898 69.9918V39.6804H70.2019C71.781 39.6804 73.1701 38.7289 73.7406 37.2564C74.3102 35.7836 73.9246 34.1448 72.7572 33.0809Z" fill="white"/>
<path d="M64.3296 6.17578H49.7148L66.5058 21.4435V8.35184C66.5058 7.15006 65.5315 6.17578 64.3296 6.17578Z" fill="white"/>
</g>
<defs>
<clipPath id="clip0">
<rect width="74" height="74" fill="white"/>
</clipPath>
</defs>
</svg>
